<svg xmlns="http://www.w3.org/2000/svg" width="2009" height="1989" viewBox="0 0 2009 1989" version="1.1"><path d="M 208 1266.076 C 177.922 1268.083, 141.047 1272.713, 140.334 1274.572 C 139.217 1277.482, 160.654 1333.902, 174.436 1364.326 C 212.070 1447.403, 260.642 1522.397, 322.866 1593.500 C 337.611 1610.349, 385.650 1658.132, 403.178 1673.384 C 548.095 1799.482, 722.260 1875.269, 910 1893.924 C 944.413 1897.343, 962.974 1898.230, 1000.500 1898.249 C 1037.751 1898.267, 1058.600 1897.286, 1092 1893.944 C 1280.207 1875.116, 1454.480 1799.187, 1598.879 1673.103 C 1618.977 1655.553, 1661.053 1613.774, 1678.152 1594.388 C 1750.597 1512.255, 1806.136 1421.607, 1845.348 1321.500 C 1855.810 1294.790, 1862.475 1275.072, 1861.400 1274.015 C 1860.379 1273.011, 1826.795 1268.703, 1805 1266.780 C 1782.108 1264.759, 1695.458 1265.100, 1672 1267.303 C 1586.776 1275.304, 1517.943 1291.121, 1448.633 1318.630 C 1263.188 1392.233, 1127.139 1537.291, 1045.930 1748 C 1031.507 1785.423, 1015.098 1837.716, 1005.374 1877.249 C 1003.243 1885.910, 1001.260 1892.998, 1000.967 1892.999 C 1000.674 1892.999, 998.700 1885.912, 996.581 1877.250 C 968.926 1764.234, 922.508 1656.175, 865.302 1571.637 C 772.112 1433.922, 644.445 1341.159, 485.168 1295.432 C 436.713 1281.521, 388.642 1272.784, 331 1267.412 C 310.504 1265.501, 229.747 1264.624, 208 1266.076" stroke="none" fill="#009fa8" fill-rule="evenodd"/><path d="M 974 35.673 C 699.513 43.122, 441.472 168.690, 264.360 381 C 188.739 471.648, 129.900 576.925, 92.497 688.500 C 67.150 764.112, 52.584 835.419, 45.413 919 C 43.280 943.852, 42.390 1017.963, 43.900 1045 C 46.085 1084.141, 49.717 1117.044, 55.987 1154.500 C 85.222 1329.136, 162.112 1491.049, 279.911 1626.034 C 343.928 1699.390, 422.288 1765.125, 506 1815.698 C 530.134 1830.278, 549.302 1840.720, 578 1854.925 C 718.259 1924.345, 870.922 1957.477, 1029.500 1952.912 C 1081.328 1951.420, 1127.704 1946.557, 1177 1937.445 C 1458.988 1885.321, 1704.188 1707.498, 1843.107 1454.374 C 1894.177 1361.319, 1930.317 1256.538, 1947.400 1152 C 1957.301 1091.414, 1960.571 1045.710, 1959.707 980 C 1959.141 936.972, 1957.925 917.460, 1953.412 879 C 1926.242 647.454, 1812.199 430.770, 1635.484 274.932 C 1452.905 113.923, 1218.240 29.045, 974 35.673 M 964.500 87.044 C 757.345 95.428, 563.144 173.178, 404.785 311.133 C 386.338 327.203, 340.517 372.707, 325.369 390 C 248.712 477.508, 192.060 571.680, 153.014 676.500 C 126.124 748.689, 107.272 830.515, 100.716 903.500 L 99.459 917.500 259.479 918 L 419.500 918.500 419.500 1010 L 419.500 1101.500 261.250 1101.753 C 135.659 1101.954, 103.001 1102.264, 103.003 1103.253 C 103.005 1103.939, 104.341 1113.725, 105.973 1125 C 110.272 1154.712, 118.542 1195.958, 125.069 1220.250 L 126.077 1224 493.157 1224 L 860.237 1224 857.369 1220.275 C 850.862 1211.827, 841.718 1197.088, 837.099 1187.606 C 810.719 1133.441, 811.175 1069.719, 838.324 1016.500 C 875.926 942.791, 956.371 903.045, 1035.458 919.101 C 1058.537 923.786, 1085.216 935.340, 1103.920 948.747 C 1114.862 956.591, 1131.693 972.333, 1139.957 982.451 C 1194.669 1049.443, 1197.166 1147.770, 1145.894 1216.251 L 1140.091 1224.003 1508.232 1223.751 L 1876.373 1223.500 1878.172 1216.500 C 1881.805 1202.371, 1887.917 1174.051, 1890.906 1157.500 C 1894.053 1140.078, 1899 1107.320, 1899 1103.907 C 1899 1102.039, 1895.777 1102, 1741.495 1102 L 1583.990 1102 1584.245 1010.250 L 1584.500 918.500 1744.250 918.247 C 1903.917 917.994, 1904 917.993, 1904 915.969 C 1904 914.855, 1903.315 907.318, 1902.478 899.222 C 1882.857 709.469, 1805.930 534.809, 1678.196 390 C 1652.150 360.472, 1612.366 321.973, 1580.500 295.457 C 1458.701 194.110, 1312.118 126.303, 1157 99.553 C 1093.883 88.668, 1028.821 84.440, 964.500 87.044 M 886 335.500 L 886 452 769.500 452 L 653 452 653 568.500 L 653 685 769.500 685 L 886 685 886 568.500 L 886 452 1002 452 L 1118 452 1118 335.500 L 1118 219 1002 219 L 886 219 886 335.500 M 1119 568.500 L 1119 685 1235 685 L 1351 685 1351 568.500 L 1351 452 1235 452 L 1119 452 1119 568.500 M 420 802.004 L 420 918.008 536.250 917.754 L 652.500 917.500 652.754 801.750 L 653.008 686 536.504 686 L 420 686 420 802.004 M 1351.246 801.750 L 1351.500 917.500 1467.750 917.754 L 1584 918.008 1584 802.004 L 1584 686 1467.496 686 L 1350.992 686 1351.246 801.750 M 208 1266.076 C 177.922 1268.083, 141.047 1272.713, 140.334 1274.572 C 139.217 1277.482, 160.654 1333.902, 174.436 1364.326 C 212.070 1447.403, 260.642 1522.397, 322.866 1593.500 C 337.611 1610.349, 385.650 1658.132, 403.178 1673.384 C 548.095 1799.482, 722.260 1875.269, 910 1893.924 C 944.413 1897.343, 962.974 1898.230, 1000.500 1898.249 C 1037.751 1898.267, 1058.600 1897.286, 1092 1893.944 C 1280.207 1875.116, 1454.480 1799.187, 1598.879 1673.103 C 1618.977 1655.553, 1661.053 1613.774, 1678.152 1594.388 C 1750.597 1512.255, 1806.136 1421.607, 1845.348 1321.500 C 1855.810 1294.790, 1862.475 1275.072, 1861.400 1274.015 C 1860.379 1273.011, 1826.795 1268.703, 1805 1266.780 C 1782.108 1264.759, 1695.458 1265.100, 1672 1267.303 C 1586.776 1275.304, 1517.943 1291.121, 1448.633 1318.630 C 1263.188 1392.233, 1127.139 1537.291, 1045.930 1748 C 1031.507 1785.423, 1015.098 1837.716, 1005.374 1877.249 C 1003.243 1885.910, 1001.260 1892.998, 1000.967 1892.999 C 1000.674 1892.999, 998.700 1885.912, 996.581 1877.250 C 968.926 1764.234, 922.508 1656.175, 865.302 1571.637 C 772.112 1433.922, 644.445 1341.159, 485.168 1295.432 C 436.713 1281.521, 388.642 1272.784, 331 1267.412 C 310.504 1265.501, 229.747 1264.624, 208 1266.076" stroke="none" fill="#fbfbfb" fill-rule="evenodd"/><path d="M 964.500 87.044 C 757.345 95.428, 563.144 173.178, 404.785 311.133 C 386.338 327.203, 340.517 372.707, 325.369 390 C 248.712 477.508, 192.060 571.680, 153.014 676.500 C 126.124 748.689, 107.272 830.515, 100.716 903.500 L 99.459 917.500 259.479 918 L 419.500 918.500 419.500 1010 L 419.500 1101.500 261.250 1101.753 C 135.659 1101.954, 103.001 1102.264, 103.003 1103.253 C 103.005 1103.939, 104.341 1113.725, 105.973 1125 C 110.272 1154.712, 118.542 1195.958, 125.069 1220.250 L 126.077 1224 493.157 1224 L 860.237 1224 857.369 1220.275 C 850.862 1211.827, 841.718 1197.088, 837.099 1187.606 C 810.719 1133.441, 811.175 1069.719, 838.324 1016.500 C 875.926 942.791, 956.371 903.045, 1035.458 919.101 C 1058.537 923.786, 1085.216 935.340, 1103.920 948.747 C 1114.862 956.591, 1131.693 972.333, 1139.957 982.451 C 1194.669 1049.443, 1197.166 1147.770, 1145.894 1216.251 L 1140.091 1224.003 1508.232 1223.751 L 1876.373 1223.500 1878.172 1216.500 C 1881.805 1202.371, 1887.917 1174.051, 1890.906 1157.500 C 1894.053 1140.078, 1899 1107.320, 1899 1103.907 C 1899 1102.039, 1895.777 1102, 1741.495 1102 L 1583.990 1102 1584.245 1010.250 L 1584.500 918.500 1744.250 918.247 C 1903.917 917.994, 1904 917.993, 1904 915.969 C 1904 914.855, 1903.315 907.318, 1902.478 899.222 C 1882.857 709.469, 1805.930 534.809, 1678.196 390 C 1652.150 360.472, 1612.366 321.973, 1580.500 295.457 C 1458.701 194.110, 1312.118 126.303, 1157 99.553 C 1093.883 88.668, 1028.821 84.440, 964.500 87.044 M 886 335.500 L 886 452 769.500 452 L 653 452 653 568.500 L 653 685 769.500 685 L 886 685 886 568.500 L 886 452 1002 452 L 1118 452 1118 335.500 L 1118 219 1002 219 L 886 219 886 335.500 M 1119 568.500 L 1119 685 1235 685 L 1351 685 1351 568.500 L 1351 452 1235 452 L 1119 452 1119 568.500 M 420 802.004 L 420 918.008 536.250 917.754 L 652.500 917.500 652.754 801.750 L 653.008 686 536.504 686 L 420 686 420 802.004 M 1351.246 801.750 L 1351.500 917.500 1467.750 917.754 L 1584 918.008 1584 802.004 L 1584 686 1467.496 686 L 1350.992 686 1351.246 801.750" stroke="none" fill="#940484" fill-rule="evenodd"/></svg>